<svg width="18" height="14" viewBox="0 0 18 14" fill="none" xmlns="http://www.w3.org/2000/svg">
<path d="M16.1928 1.64517L17.5974 0.295581V0H12.7329L9.26612 8.67038L5.32275 0H0.222259V0.295581L1.86285 2.27987C2.02324 2.42651 2.10573 2.6419 2.08511 2.85728V10.6547C2.13552 10.9365 2.04615 11.2229 1.8491 11.4268L0 13.6792V13.9702H5.23797V13.6746L3.39116 11.4291C3.29221 11.3287 3.21778 11.2067 3.17367 11.0728C3.12955 10.9389 3.11695 10.7966 3.13682 10.657V3.91129L7.73552 13.9748H8.26939L12.2242 3.91129V11.9286C12.2242 12.1394 12.2242 12.183 12.0867 12.3227L10.6638 13.7044V14H17.5653V13.7044L16.1928 12.3548C16.0736 12.2632 16.0118 12.1097 16.037 11.9607V2.03928C16.0251 1.96565 16.0333 1.89018 16.0608 1.82082C16.0882 1.75146 16.1338 1.69078 16.1928 1.64517V1.64517Z" fill="url(#paint0_linear_306_294)"/>
<defs>
<linearGradient id="paint0_linear_306_294" x1="8.79869" y1="0" x2="8.79869" y2="14" gradientUnits="userSpaceOnUse">
<stop stop-color="#EE0349"/>
<stop offset="1" stop-color="#FD2F22"/>
</linearGradient>
</defs>
</svg>
