<svg width="112" height="20" viewBox="0 0 112 20" fill="none" xmlns="http://www.w3.org/2000/svg">
<path fill-rule="evenodd" clip-rule="evenodd" d="M10.0908 8.76107V17.5221L12.0271 18.1349C13.092 18.472 13.9861 18.7477 14.014 18.7477C14.0525 18.7477 14.0646 16.9515 14.0646 11.2397C14.0646 2.90007 14.0444 3.46803 14.3505 3.19927C14.6952 2.89662 15.275 3.15608 15.5009 3.7141C15.5979 3.95352 15.5981 3.95832 15.6196 7.215L15.6412 10.4761L15.9868 10.6152C16.4775 10.8127 16.9139 10.9018 17.3905 10.9015C18.6413 10.9007 19.51 10.1342 19.8796 8.70518C19.9728 8.34481 19.995 8.14284 20.0141 7.48604C20.0944 4.70466 19.2774 3.22078 17.0605 2.12168C16.7788 1.98199 16.2859 1.76986 15.9652 1.65026C14.8445 1.23236 12.1708 0.455392 10.8899 0.175367C10.5573 0.102672 10.2415 0.0334751 10.188 0.0215969L10.0908 0V8.76107ZM33.4467 4.60653C33.4295 4.62372 33.4154 7.16135 33.4154 10.2458V15.8537H34.4305H35.4455V10.8433V5.8328L36.6658 5.83323C37.8677 5.83362 37.8893 5.83521 38.112 5.93888C38.644 6.18655 38.9057 6.90642 38.9057 8.12206C38.9057 9.33149 38.6516 10.0321 38.1163 10.2989C37.8979 10.4077 37.8651 10.4113 37.1 10.4113H36.3094V11.0418V11.6722L37.4648 11.6534C38.4153 11.6378 38.6624 11.6209 38.8578 11.558C39.32 11.4091 39.6019 11.2334 39.9606 10.8704C40.373 10.453 40.6099 10.0172 40.7865 9.35084C40.8877 8.96922 40.9009 8.83657 40.9046 8.16526C40.9078 7.58495 40.8905 7.32423 40.8302 7.04291C40.5611 5.78779 39.8971 4.96711 38.9191 4.68082C38.6921 4.61434 38.3736 4.60428 36.0707 4.59063C34.6446 4.58221 33.4638 4.58938 33.4467 4.60653ZM42.1406 10.217V15.8537H43.134H44.1275V10.217V4.58018H43.134H42.1406V10.217ZM65.051 4.62557C64.6464 4.66514 64.1209 4.83023 63.7806 5.02464C63.438 5.2204 63.0102 5.6684 62.8214 6.02911C62.5307 6.58467 62.4632 6.91385 62.4632 7.77651C62.4632 8.44818 62.4745 8.56851 62.5644 8.85636C62.8808 9.86964 63.5851 10.5622 64.5149 10.7742C64.6693 10.8094 65.0775 10.86 65.422 10.8866C66.1722 10.9446 66.3964 11.009 66.6271 11.2329C66.9742 11.5697 67.1065 11.9928 67.1065 12.7654C67.1065 13.7428 66.8754 14.2348 66.2861 14.5112L66.0483 14.6227L64.4609 14.6359L62.8736 14.6492V15.2514V15.8537H64.7929C66.9488 15.8537 67.1102 15.8376 67.6681 15.5655C68.7085 15.058 69.2388 13.7784 69.0968 12.1171C69.0239 11.2645 68.7941 10.61 68.4004 10.1335C67.9258 9.55921 67.4529 9.36691 66.2652 9.26532C65.8608 9.23072 65.4608 9.1915 65.3762 9.17815C65.1592 9.14394 64.8002 8.92806 64.6647 8.75036C64.3421 8.32736 64.2641 7.35252 64.4964 6.64609C64.5823 6.38511 64.8475 6.08613 65.108 5.95676C65.3106 5.85608 65.34 5.85405 66.8906 5.8328L68.4671 5.8112V5.20649V4.60177L66.9338 4.59659C66.0904 4.59374 65.2432 4.60679 65.051 4.62557ZM89.5097 4.60899C89.4939 4.6248 89.4809 5.01354 89.4809 5.47286V6.30793H90.4743H91.4678V5.44405V4.58018H90.5032C89.9726 4.58018 89.5255 4.59314 89.5097 4.60899ZM70.5627 9.79582C70.5634 14.183 70.5542 14.0255 70.8456 14.6314C71.1208 15.2035 71.6342 15.6379 72.2193 15.7937C72.3716 15.8343 72.7146 15.8529 73.3156 15.8532L74.1903 15.8537V15.2533V14.6528L73.6103 14.6378C72.9365 14.6203 72.8574 14.5858 72.6785 14.2317L72.5705 14.018L72.5579 11.2644L72.5454 8.51081H73.627H74.7086V7.9061V7.30138H73.6288H72.549V6.56709V5.8328H71.5555H70.562L70.5627 9.79582ZM84.1344 9.88221L84.1465 13.9316L84.2643 14.2772C84.4721 14.8867 84.8361 15.3409 85.3341 15.6119C85.7171 15.8204 85.9238 15.8527 86.8785 15.8532L87.7532 15.8537V15.2533V14.6528L87.1731 14.6378C86.6696 14.6247 86.577 14.611 86.4712 14.5335C86.3131 14.4179 86.2052 14.1963 86.1536 13.8817C86.1306 13.7413 86.1122 12.494 86.112 11.07L86.1118 8.51081H87.1916H88.2715V7.90683V7.3029L87.2024 7.29132L86.1334 7.27979L86.1215 6.55629L86.1097 5.8328H85.116H84.1223L84.1344 9.88221ZM48.1013 7.38613C47.6139 7.49053 47.2935 7.61605 46.9799 7.8255C46.2206 8.3325 45.771 9.2381 45.637 10.5304C45.608 10.8097 45.5946 11.579 45.6034 12.463L45.6179 13.9316L45.75 14.3007C45.974 14.9267 46.3073 15.3409 46.8053 15.6119C47.2046 15.8292 47.3777 15.8527 48.5872 15.8532L49.6995 15.8537V15.249V14.6443H48.9638C48.012 14.6443 47.8588 14.582 47.6854 14.1248C47.5284 13.7105 47.5632 10.6347 47.7346 9.77923C47.8218 9.34436 48.0173 8.93964 48.222 8.77027C48.4899 8.54869 48.7037 8.51081 49.6857 8.51081H50.5633V12.1823V15.8537H51.5784H52.5934V11.5776V7.30138L50.5309 7.30441C48.7068 7.30713 48.426 7.31654 48.1013 7.38613ZM53.6733 7.33581C53.6733 7.35559 54.3145 9.24622 55.0982 11.5372C55.8819 13.8281 56.5233 15.7363 56.5236 15.7776C56.5239 15.8189 56.1645 16.7777 55.725 17.9083C55.2855 19.039 54.9259 19.9722 54.9259 19.9822C54.9259 19.9922 55.3195 20.0002 55.8006 20L56.6753 19.9996L56.9628 19.2765C57.1209 18.8788 58.2605 16.0217 59.4952 12.9274L61.74 7.30138H60.7841H59.8283L58.7501 10.0923C58.1572 11.6274 57.6653 12.8665 57.657 12.8459C57.6488 12.8254 57.22 11.5743 56.7041 10.0658L55.7662 7.32298L54.7197 7.3114C54.1442 7.30505 53.6733 7.31603 53.6733 7.33581ZM78.0706 7.36907C77.1149 7.54197 76.4084 8.03684 76.0091 8.81316C75.8021 9.21556 75.683 9.57942 75.5849 10.109C75.5209 10.4542 75.5087 10.7796 75.5083 12.1607C75.5077 13.9913 75.5139 14.0446 75.7955 14.6364C76.0816 15.2373 76.627 15.6843 77.226 15.8086C77.3628 15.8369 77.876 15.8508 78.5313 15.8437L79.6111 15.8321V15.249V14.6659L78.8043 14.6443C77.8767 14.6195 77.8341 14.6043 77.6458 14.2317L77.5378 14.018V12.1607C77.5378 10.5324 77.5477 10.251 77.618 9.8788C77.7682 9.08399 78.0748 8.65775 78.5705 8.55482C78.6962 8.52873 79.1553 8.51396 79.6334 8.52066L80.475 8.5324V12.1823V15.8321L81.4793 15.8437L82.4835 15.8553V11.5783V7.30138L80.4426 7.30527C78.9046 7.30816 78.3201 7.32389 78.0706 7.36907ZM89.4809 11.5776V15.8537H90.4743H91.4678V11.5776V7.30138H90.4743H89.4809V11.5776ZM95.4996 7.36272C94.536 7.5456 93.8288 7.99456 93.3942 8.69939C92.9611 9.40151 92.7969 10.193 92.7969 11.5776C92.7969 12.6543 92.8822 13.267 93.1203 13.8998C93.4719 14.8341 94.1667 15.4546 95.1632 15.7243C95.6011 15.8428 96.7264 15.8902 97.2629 15.8128C98.5574 15.6259 99.4066 14.9379 99.8005 13.757C100.015 13.1134 100.077 12.6263 100.077 11.5776C100.077 10.5288 100.015 10.0418 99.8005 9.39814C99.4544 8.36036 98.7573 7.71138 97.6877 7.43105C97.2199 7.30842 95.9882 7.26994 95.4996 7.36272ZM101.402 11.575V15.8537H102.396H103.389V12.1787V8.50372L104.372 8.51884C105.299 8.53314 105.366 8.53966 105.56 8.63525C105.924 8.81472 106.129 9.15651 106.268 9.81297C106.335 10.1317 106.346 10.5051 106.359 13.0138L106.375 15.8537H107.392H108.409L108.388 13.2513C108.365 10.4876 108.345 10.1772 108.137 9.48267C107.887 8.64816 107.351 7.98017 106.672 7.6573C105.977 7.32661 106.006 7.32993 103.573 7.31214L101.402 7.29629V11.575ZM97.1991 8.66609C97.62 8.87649 97.8329 9.25098 97.978 10.0364C98.0836 10.608 98.084 12.5543 97.9787 13.1187C97.832 13.905 97.6212 14.2733 97.1922 14.4927C96.9526 14.6152 96.909 14.6227 96.4382 14.6224C95.8923 14.6221 95.6949 14.5648 95.4098 14.3239C94.979 13.9597 94.7547 12.79 94.8087 11.1888C94.8672 9.45433 95.1489 8.7831 95.9083 8.56856C96.0349 8.53275 96.2684 8.51677 96.5296 8.52593C96.8877 8.5385 96.9842 8.55871 97.1991 8.66609ZM6.33295 11.6448C4.70563 12.2256 3.21868 12.762 3.02863 12.8369C2.5303 13.0332 1.72444 13.4497 1.47534 13.6397C0.843287 14.1217 0.817544 14.7164 1.40524 15.2603C1.71235 15.5445 2.03552 15.7165 2.63989 15.9174C4.73535 16.614 6.7109 16.7916 8.82739 16.4737L9.31332 16.4008V15.3667C9.31332 14.3995 9.30844 14.3346 9.23773 14.3622C8.58788 14.6153 7.09346 15.1277 6.82968 15.1879C6.34388 15.2987 5.41556 15.3005 5.05874 15.1913C4.42828 14.9984 4.46621 14.6652 5.14983 14.3908C5.31354 14.3251 6.31719 13.9616 7.38014 13.5831L9.3128 12.895L9.31306 11.7395C9.31319 11.1041 9.30844 10.5852 9.30252 10.5865C9.2966 10.5878 7.96028 11.064 6.33295 11.6448ZM18.3288 11.6255C17.3374 11.7017 16.068 11.9513 15.1337 12.2538L14.7989 12.3621V13.5464C14.7989 14.1978 14.8061 14.7307 14.8149 14.7307C14.8299 14.7307 15.2218 14.5938 18.1896 13.552C18.8311 13.3269 19.5016 13.1168 19.6798 13.0852C19.858 13.0535 20.2467 13.0275 20.5437 13.0274C21.1447 13.027 21.4908 13.1028 21.6967 13.28C21.8016 13.3702 21.8109 13.3977 21.7731 13.506C21.7488 13.5756 21.6455 13.6857 21.5359 13.7588C21.4112 13.842 20.1706 14.3046 18.0703 15.051L14.7989 16.2136V17.3561C14.7989 18.4232 14.8039 18.4973 14.8745 18.4783C15.0517 18.4306 23.4138 15.4163 23.7031 15.2958C24.7141 14.8749 25.3074 14.3251 25.3074 13.8089C25.3074 13.1781 24.7067 12.7099 23.2865 12.2338C21.7204 11.7089 19.9963 11.4974 18.3288 11.6255ZM110.348 14.0612C109.725 14.2558 109.496 15.0503 109.924 15.5377C110.496 16.1891 111.551 15.7766 111.553 14.9011C111.553 14.536 111.232 14.1488 110.84 14.0434C110.627 13.9859 110.585 13.9874 110.348 14.0612ZM110.891 14.2151C111.04 14.2714 111.237 14.4532 111.319 14.6098C111.397 14.7579 111.398 15.0805 111.321 15.2632C111.289 15.3408 111.2 15.4563 111.125 15.5199C110.652 15.9175 109.937 15.6411 109.879 15.0386C109.851 14.7514 109.885 14.6341 110.052 14.4445C110.275 14.1901 110.594 14.1029 110.891 14.2151ZM110.243 14.414C110.227 14.4298 110.214 14.663 110.214 14.9323V15.4218H110.322C110.421 15.4218 110.43 15.4061 110.43 15.2251V15.0283L110.635 15.0415C110.839 15.0546 110.84 15.0555 110.862 15.2274C110.879 15.3625 110.904 15.4031 110.976 15.4133C111.061 15.4256 111.066 15.4117 111.046 15.219C111.034 15.1048 111.009 14.9953 110.991 14.9755C110.973 14.9557 110.986 14.8832 111.021 14.8144C111.073 14.7094 111.074 14.6701 111.027 14.5714C110.995 14.5066 110.921 14.4401 110.862 14.4237C110.719 14.3842 110.279 14.3773 110.243 14.414ZM110.855 14.6826C110.873 14.8104 110.801 14.8588 110.592 14.8596C110.435 14.8603 110.43 14.8555 110.43 14.7067V14.5532L110.635 14.5664C110.814 14.5778 110.842 14.5927 110.855 14.6826ZM23.5457 16.9339C23.3502 16.9947 23.0908 17.2298 23.0011 17.4272C22.7747 17.9258 23.0484 18.544 23.5639 18.6984C23.8197 18.7751 24.0057 18.7576 24.2549 18.6334C24.6404 18.4413 24.846 17.9992 24.7374 17.5959C24.6715 17.3512 24.4705 17.0918 24.2742 16.998C24.0816 16.906 23.7338 16.8754 23.5457 16.9339ZM24.2335 17.161C24.5432 17.3373 24.6873 17.7781 24.5444 18.112C24.3065 18.6681 23.5294 18.7348 23.194 18.2279C22.9424 17.8477 23.1114 17.2762 23.5241 17.1117C23.7194 17.0338 24.0503 17.0568 24.2335 17.161ZM23.4377 17.7975C23.4377 18.2821 23.4431 18.3158 23.5217 18.3158C23.5913 18.3158 23.608 18.2805 23.6189 18.1106C23.632 17.9067 23.633 17.9054 23.797 17.8918C24.0104 17.8743 24.0856 17.9411 24.0856 18.1483C24.0856 18.2958 24.0978 18.3158 24.1883 18.3158C24.285 18.3158 24.2897 18.304 24.269 18.1106C24.2569 17.9978 24.2271 17.8803 24.2027 17.8496C24.172 17.811 24.1737 17.7784 24.2083 17.7438C24.2358 17.7163 24.2584 17.6308 24.2584 17.5537C24.2584 17.3466 24.134 17.2791 23.752 17.2791H23.4377V17.7975ZM24.064 17.5815C24.064 17.6813 24.0468 17.6905 23.8372 17.7025L23.6104 17.7156V17.5815V17.4474L23.8372 17.4605C24.0468 17.4725 24.064 17.4817 24.064 17.5815Z" fill="url(#paint0_linear_511_2849)"/>
<defs>
<linearGradient id="paint0_linear_511_2849" x1="3.23013" y1="0.576661" x2="7.33789" y2="27.4728" gradientUnits="userSpaceOnUse">
<stop stop-color="#F1FFFC"/>
<stop offset="0.515625" stop-color="#F1F1FF"/>
<stop offset="1" stop-color="#E6F6FF"/>
</linearGradient>
</defs>
</svg>
