<svg width="118" height="20" viewBox="0 0 118 20" fill="none" xmlns="http://www.w3.org/2000/svg">
<path fill-rule="evenodd" clip-rule="evenodd" d="M73.2614 0.284411C72.0613 0.997345 72.0105 2.52664 73.1568 3.43467C73.53 3.73037 73.6887 3.78039 74.2528 3.78039C74.8034 3.78039 74.9835 3.72663 75.3427 3.45504C75.5809 3.27488 75.8743 2.90269 75.9999 2.62125C76.7499 0.940424 74.8648 -0.668203 73.2614 0.284411ZM42.0675 4.26077V8.41525L41.7536 8.0555C40.9202 7.10028 39.3405 6.44348 37.8764 6.44348C35.4229 6.44348 33.4093 7.72868 32.258 10.0294C31.7776 10.9896 31.5681 11.9607 31.5661 13.2378C31.563 15.2311 32.2083 16.8327 33.5523 18.1673C35.8305 20.4295 39.317 20.6186 41.4961 18.5982L42.0675 18.0684V18.5868C42.0675 18.9696 42.1385 19.1871 42.3391 19.4182C42.5962 19.7144 42.6722 19.7336 43.7662 19.7771L44.9216 19.8232V9.96469V0.106291H43.4946H42.0675V4.26077ZM88.6464 4.26077V8.41525L88.3324 8.0555C86.8903 6.40251 83.8919 5.95608 81.6834 7.06531C80.3041 7.75822 79.0811 9.18827 78.5063 10.7804C78.1217 11.8458 78.025 13.8375 78.3043 14.9403C78.9784 17.6022 81.0611 19.5671 83.5969 19.9335C85.2414 20.1711 86.9177 19.6712 88.075 18.5982L88.6464 18.0684V18.5868C88.6464 18.9696 88.7174 19.1871 88.918 19.4182C89.1751 19.7144 89.2511 19.7336 90.345 19.7771L91.5005 19.8232V9.96469V0.106291H90.0734H88.6464V4.26077ZM96.5237 4.74602V6.55664H95.1537H93.7837V7.46195V8.36727H95.1537H96.5237L96.5272 12.13C96.5291 14.1994 96.5789 16.2605 96.6378 16.7099C96.8312 18.1857 97.6166 19.2281 98.8516 19.6481C99.5597 19.8889 101.162 19.9008 101.832 19.6702L102.289 19.5129V18.7213C102.289 18.0755 102.257 17.9369 102.118 17.969C100.907 18.2473 99.6926 18.1759 99.1691 17.7956C98.4763 17.2924 98.4648 17.2073 98.4647 12.5853L98.4645 8.3727L100.377 8.34169L102.289 8.31068V7.46195V6.61322L100.377 6.58222L98.4645 6.55121V4.7433V2.93539H97.4941H96.5237V4.74602ZM5.31954 6.62239C3.16093 7.19783 1.3818 9.08031 0.782781 11.4227C0.534931 12.3916 0.53984 14.0894 0.793056 15.0439C1.11386 16.253 1.79279 17.4112 2.67664 18.257C4.96209 20.444 8.31463 20.5867 10.5528 18.592L11.1291 18.0784V18.635C11.1291 19.0849 11.1847 19.2433 11.4197 19.4621C11.677 19.7018 11.8399 19.7379 12.8467 19.7779L13.9832 19.8232V13.2464V6.66981H12.5562H11.1291V7.53743V8.40495L10.701 7.97413C9.37932 6.644 7.24719 6.10851 5.31954 6.62239ZM22.859 6.56038C22.0988 6.74857 21.2461 7.2466 20.6903 7.82679L20.1481 8.39295V7.53144V6.66981H18.721H17.294V12.8875V19.1052L17.5656 19.4182C17.8226 19.7144 17.8987 19.7336 18.9926 19.7771L20.1481 19.8232L20.1516 16.5565C20.1535 14.7599 20.2043 12.9136 20.2646 12.4538C20.455 10.9995 21.1281 9.8891 22.1459 9.35066C22.5018 9.16224 22.806 9.10826 23.5243 9.10589C24.3543 9.10317 24.5019 9.13701 25.0068 9.44606C25.4359 9.70894 25.648 9.94568 25.9116 10.4562L26.2558 11.1229L26.3129 15.1741C26.382 20.0731 26.2458 19.7069 28.0244 19.7777L29.167 19.8232V15.3072C29.167 11.5935 29.1356 10.6716 28.99 10.1179C28.586 8.58013 27.7946 7.58372 26.4571 6.92838C25.6488 6.53242 25.5156 6.50278 24.4396 6.47935C23.806 6.46554 23.0947 6.50198 22.859 6.56038ZM61.5895 6.70839C60.3801 7.06531 59.5971 7.51921 58.7276 8.36727C56.6545 10.3892 56.0998 13.43 57.324 16.0613C58.1239 17.7803 59.6733 19.1412 61.4497 19.685C65.0924 20.8003 68.946 18.8618 70.1135 15.3269C70.4948 14.1724 70.5429 12.4243 70.2226 11.371C69.4792 8.92675 67.6363 7.17984 65.201 6.61051C64.1476 6.36426 62.6145 6.40579 61.5895 6.70839ZM53.4159 6.76339C52.6772 7.01643 51.9425 7.59164 51.5259 8.24279L51.2006 8.75112V7.71046V6.66981H49.7136H48.2268L48.258 12.9474L48.2894 19.2249L48.5494 19.4826C48.7861 19.7171 48.9144 19.7403 49.9764 19.7403H51.1435L51.2006 15.8361L51.2577 11.9319L51.5534 11.3095C51.9598 10.4541 52.3582 10.0203 53.0524 9.67748C53.6871 9.3639 54.6738 9.28548 55.3969 9.49098L55.7672 9.59623V8.14513C55.7672 6.92635 55.7383 6.68305 55.5866 6.62533C55.2285 6.48908 53.9854 6.56818 53.4159 6.76339ZM103.606 6.69368C103.609 6.77392 104.983 9.74221 106.661 13.2899L109.711 19.7403H110.439H111.167L114.178 13.3465C115.835 9.82991 117.218 6.86354 117.253 6.75468C117.311 6.57622 117.217 6.55664 116.301 6.55664H115.285L112.913 11.6773C111.609 14.4936 110.506 16.8357 110.463 16.8817C110.42 16.9278 109.306 14.6362 107.986 11.7893L105.587 6.61322L104.595 6.58052C103.842 6.55574 103.603 6.58312 103.606 6.69368ZM72.7776 12.7733C72.7776 16.5423 72.821 18.9899 72.8911 19.1725C73.0636 19.6223 73.6511 19.8117 74.754 19.773L75.6888 19.7403L75.7182 13.205L75.7477 6.66981H74.2626H72.7776V12.7733ZM9.13124 9.41279C9.80367 9.75839 10.5561 10.5035 10.8781 11.1426C11.2075 11.7966 11.4006 12.9063 11.3192 13.6783C11.1551 15.2341 10.4041 16.3551 9.09905 16.9918C8.42651 17.3201 8.22923 17.3635 7.42118 17.3606C5.9084 17.3553 4.75728 16.6852 4.08052 15.4157C3.11983 13.6133 3.37967 11.5042 4.72726 10.1684C5.60883 9.29453 6.29941 9.03244 7.59003 9.08201C8.36292 9.11177 8.67664 9.17899 9.13124 9.41279ZM40.2176 9.49562C40.6128 9.70453 41.0889 10.0664 41.2754 10.2999C42.7616 12.16 42.5906 14.9533 40.8982 16.4617C39.4596 17.7438 37.0621 17.6644 35.6743 16.2887C33.8338 14.4643 34.1863 10.9136 36.3392 9.59023C36.9952 9.18691 37.6176 9.04614 38.5855 9.08201C39.3654 9.11098 39.6039 9.17141 40.2176 9.49562ZM65.1189 9.3948C66.7284 10.1006 67.6545 11.7603 67.4796 13.6255C67.2858 15.6926 65.8291 17.1657 63.8631 17.2827C62.1335 17.3855 60.862 16.6871 60.1054 15.2188C59.7198 14.4703 59.7058 14.3995 59.7058 13.1876C59.7058 12.1395 59.7466 11.8445 59.9525 11.4028C60.2331 10.8009 60.9848 9.9476 61.5271 9.61535C62.4856 9.02814 64.0619 8.93139 65.1189 9.3948ZM86.6733 9.42297C87.487 9.83602 88.0382 10.4145 88.461 11.2995C88.7868 11.9816 88.8168 12.1414 88.8142 13.1767C88.8106 14.5515 88.547 15.3172 87.7898 16.152C87.0509 16.9666 86.1233 17.357 84.936 17.3533C83.826 17.3498 82.9882 17.0173 82.2532 16.2887C80.4073 14.459 80.7501 10.9176 82.9006 9.60007C83.9534 8.95515 85.599 8.87786 86.6733 9.42297Z" fill="url(#paint0_linear_511_2840)"/>
<defs>
<linearGradient id="paint0_linear_511_2840" x1="2.97187" y1="0.576661" x2="6.87404" y2="27.5354" gradientUnits="userSpaceOnUse">
<stop stop-color="#F1FFFC"/>
<stop offset="0.515625" stop-color="#F1F1FF"/>
<stop offset="1" stop-color="#E6F6FF"/>
</linearGradient>
</defs>
</svg>
