<svg width="45" height="34" viewBox="0 0 45 34" fill="none" xmlns="http://www.w3.org/2000/svg">
<path d="M38.0953 2.79928C35.2266 1.50553 32.1516 0.549281 28.9359 0.00553156C28.9072 3.39e-05 28.8776 0.00357678 28.851 0.0156703C28.8246 0.0277639 28.8024 0.0478097 28.7878 0.0730316C28.3941 0.764906 27.9553 1.66678 27.6478 2.37928C24.2374 1.86973 20.7701 1.86973 17.3597 2.37928C17.0171 1.58965 16.6309 0.819701 16.2028 0.0730316C16.1883 0.0474992 16.1663 0.0269998 16.1398 0.0142693C16.1134 0.00153874 16.0837 -0.00281777 16.0546 0.00178138C12.8409 0.545531 9.7659 1.50178 6.89527 2.79741C6.87058 2.80776 6.84964 2.82544 6.83527 2.84803C1.00028 11.4262 -0.599098 19.7925 0.186526 28.0537C0.188713 28.0738 0.194992 28.0935 0.204986 28.1111C0.214978 28.1289 0.228474 28.1445 0.244652 28.1569C3.65038 30.6364 7.44904 32.5252 11.4815 33.7444C11.5096 33.753 11.5397 33.753 11.5678 33.7442C11.5959 33.7356 11.6207 33.7185 11.639 33.6954C12.5068 32.535 13.2757 31.3039 13.9378 30.0148C13.947 29.9974 13.9523 29.9779 13.9533 29.958C13.9544 29.9381 13.9511 29.9184 13.9438 29.8999C13.9365 29.8813 13.9254 29.8646 13.9111 29.8509C13.8967 29.8371 13.8796 29.8266 13.8609 29.8198C12.6497 29.3638 11.4761 28.8133 10.3509 28.1736C10.3307 28.1621 10.3136 28.1458 10.3013 28.1259C10.289 28.1062 10.2818 28.0838 10.2803 28.0605C10.2788 28.0373 10.2831 28.014 10.2928 27.9928C10.3025 27.9718 10.3173 27.9532 10.3359 27.9392C10.5721 27.7648 10.8084 27.5831 11.0334 27.4013C11.0536 27.3848 11.078 27.3744 11.1039 27.3711C11.1297 27.3677 11.1559 27.3716 11.1797 27.3825C18.5428 30.69 26.5172 30.69 33.7941 27.3825C33.8179 27.3711 33.8443 27.3666 33.8706 27.3696C33.8966 27.3726 33.9216 27.3829 33.9422 27.3992C34.1672 27.5829 34.4016 27.7648 34.6397 27.9392C34.6584 27.9531 34.6734 27.9713 34.6836 27.9923C34.6935 28.0131 34.6982 28.0363 34.6971 28.0596C34.6959 28.0826 34.689 28.1053 34.6772 28.1252C34.6652 28.1451 34.6483 28.1617 34.6284 28.1736C33.5072 28.8186 32.3409 29.3644 31.1166 29.8181C31.0978 29.8249 31.0806 29.8356 31.0663 29.8496C31.0519 29.8635 31.0408 29.8804 31.0335 29.8991C31.0262 29.9177 31.023 29.9377 31.0241 29.9576C31.0251 29.9777 31.0305 29.9972 31.0397 30.0148C31.7147 31.3029 32.4872 32.5292 33.3366 33.6936C33.3542 33.7176 33.3788 33.7354 33.4071 33.7448C33.4352 33.7541 33.4656 33.7547 33.4941 33.7461C37.5334 32.5305 41.3383 30.6407 44.7478 28.1569C44.7645 28.1451 44.7784 28.1301 44.7887 28.1126C44.799 28.0952 44.8056 28.0757 44.8078 28.0554C45.7453 18.5043 43.2366 10.2055 38.1534 2.85178C38.1409 2.82787 38.1202 2.80926 38.0953 2.79928ZM15.0384 23.0229C12.8222 23.0229 10.994 21.0186 10.994 18.5605C10.994 16.1005 12.7865 14.098 15.0384 14.098C17.3072 14.098 19.1184 16.1174 19.0828 18.5605C19.0828 21.0204 17.2903 23.0229 15.0384 23.0229ZM29.9916 23.0229C27.7734 23.0229 25.9472 21.0186 25.9472 18.5605C25.9472 16.1005 27.7378 14.098 29.9916 14.098C32.2603 14.098 34.0716 16.1174 34.0359 18.5605C34.0359 21.0204 32.2622 23.0229 29.9916 23.0229Z" fill="url(#paint0_linear_409_504)"/>
<defs>
<linearGradient id="paint0_linear_409_504" x1="22.5007" y1="0" x2="22.5007" y2="33.7522" gradientUnits="userSpaceOnUse">
<stop stop-color="#6523D7"/>
<stop offset="0.807145" stop-color="#4C42B9"/>
</linearGradient>
</defs>
</svg>
