<svg width="53" height="20" viewBox="0 0 53 20" fill="none" xmlns="http://www.w3.org/2000/svg">
<path fill-rule="evenodd" clip-rule="evenodd" d="M12.0836 0.0315584C10.3896 0.293038 8.95005 1.56224 8.48985 3.2001C8.39836 3.52574 8.35155 3.84983 8.33906 4.24461L8.32741 4.61186L8.47005 4.61169C9.43873 4.61053 10.5002 4.12618 11.1418 3.39252C11.8928 2.53376 12.2705 1.62679 12.3375 0.521393C12.3537 0.255382 12.3343 -0.00303517 12.2986 2.69458e-05C12.2855 0.0011442 12.1888 0.0153375 12.0836 0.0315584ZM19.9128 2.4739C19.9052 2.48148 19.899 3.24493 19.899 4.17048V5.85325H18.8852H17.8714V6.96017V8.06708H18.9155H19.9596L19.9669 12.4482C19.9749 17.2064 19.9694 16.9735 20.0874 17.5638C20.3394 18.8235 21.0464 19.5463 22.3015 19.827C22.7766 19.9332 23.01 19.9521 23.8508 19.9525C24.6002 19.9528 24.9807 19.9294 25.2991 19.8633L25.3715 19.8483L25.3769 18.7629C25.3799 18.166 25.3784 17.6675 25.3737 17.6552C25.3678 17.6398 25.3208 17.6381 25.2235 17.6499C24.9045 17.6885 24.3677 17.7076 24.1595 17.6877C23.2843 17.6044 22.8336 17.1563 22.7341 16.2706C22.7207 16.1515 22.7131 14.6291 22.713 12.0447L22.7129 8.00501H24.0474H25.3819V6.90844V5.81187H24.0474H22.7129V4.13599V2.4601H21.3197C20.5535 2.4601 19.9204 2.46631 19.9128 2.4739ZM11.7162 4.83144C11.1041 4.89541 10.6345 5.02675 9.66026 5.40654C8.82153 5.73346 8.59797 5.78961 8.29993 5.74817C8.02782 5.71031 7.88462 5.66307 6.99148 5.31647C6.54545 5.1434 6.15685 5.02259 5.84021 4.9586C5.5419 4.89829 4.96498 4.8944 4.6195 4.95034C3.58556 5.11781 2.71638 5.54657 1.99407 6.24549C1.70986 6.5205 1.49789 6.77321 1.30779 7.06362C0.778084 7.87282 0.468376 8.72829 0.322801 9.78434C0.262759 10.2198 0.247904 11.1711 0.293049 11.6878C0.458051 13.5756 1.1276 15.5671 2.13294 17.1603C2.33657 17.483 2.79664 18.1213 3.08222 18.4773C4.01 19.6339 4.76855 20.0783 5.66259 19.9889C6.09956 19.9452 6.30422 19.8846 6.99032 19.5959C7.78473 19.2617 8.07657 19.1935 8.71611 19.193C9.34809 19.1925 9.67697 19.2694 10.4652 19.6021C11.2108 19.9167 11.4559 19.9738 11.9955 19.9582C12.3664 19.9475 12.5277 19.9155 12.8176 19.7949C13.4242 19.5425 14.0431 18.9617 14.6766 18.05C15.4655 16.9147 15.9152 16.0726 16.2845 15.0396C16.3353 14.8973 16.3832 14.7604 16.3908 14.7352C16.4032 14.6944 16.3862 14.6802 16.2349 14.6041C14.7154 13.8401 13.7541 12.3015 13.7541 10.6335C13.7541 9.1839 14.4939 7.77928 15.699 6.94078C15.7957 6.87347 15.8783 6.81583 15.8825 6.81267C15.9041 6.79649 15.5773 6.41089 15.349 6.18313C14.6302 5.46606 13.7663 5.02955 12.7507 4.87034C12.5502 4.83891 11.8842 4.81387 11.7162 4.83144ZM26.9741 6.13774C27.0292 6.29422 28.1343 9.44108 29.4299 13.1308L31.7854 19.8393L33.254 19.8343L34.7226 19.8293L37.1591 12.8775C38.4991 9.05399 39.6009 5.90939 39.6074 5.88946C39.6187 5.85522 39.5421 5.85325 38.1911 5.85325H36.7629L36.7414 5.93084C36.7295 5.97352 35.9533 8.50364 35.0165 11.5533C33.732 15.7348 33.305 17.0998 33.2799 17.1047C33.2393 17.1125 33.4491 17.7817 31.4649 11.3154C30.5762 8.41932 29.8348 6.00559 29.8173 5.95153L29.7855 5.85325H28.3297H26.8739L26.9741 6.13774ZM45.0373 8.71881V11.5844H42.3269H39.6165V12.8465V14.1085H42.3269H45.0373V16.9741V19.8397H46.2993H47.5613L47.5666 16.9793L47.5718 14.1189L50.277 14.1136L52.9823 14.1084V12.8464V11.5844H50.2719H47.5615V8.71881V5.85325H46.2994H45.0373V8.71881Z" fill="url(#paint0_linear_511_2844)"/>
<defs>
<linearGradient id="paint0_linear_511_2844" x1="1.33846" y1="0.576661" x2="9.33484" y2="25.5386" gradientUnits="userSpaceOnUse">
<stop stop-color="#F1FFFC"/>
<stop offset="0.515625" stop-color="#F1F1FF"/>
<stop offset="1" stop-color="#E6F6FF"/>
</linearGradient>
</defs>
</svg>
