<svg width="76" height="18" viewBox="0 0 76 18" fill="none" xmlns="http://www.w3.org/2000/svg">
<path fill-rule="evenodd" clip-rule="evenodd" d="M51.5279 0.03386C48.9209 0.257534 46.4775 1.64296 44.9483 3.76454C44.0007 5.07916 43.4419 6.58248 43.2895 8.22708C43.2406 8.75429 43.2699 9.78987 43.348 10.2931C43.6567 12.2833 44.518 13.9807 45.9255 15.3728C46.6509 16.0903 47.3895 16.6144 48.3059 17.0619C48.8774 17.3409 49.199 17.4678 49.7663 17.6379C51.4567 18.1448 53.4044 18.1184 55.1172 17.5655C57.6963 16.733 59.7747 14.7881 60.7673 12.2787C61.7567 9.77705 61.5469 6.88522 60.2072 4.56094C58.4356 1.48747 55.0666 -0.269799 51.5279 0.03386ZM68.1949 0.0176059C66.7014 0.144711 65.8952 0.333247 65.0485 0.753404C63.5533 1.49536 62.799 2.82001 62.874 4.57208C62.9452 6.23607 63.7553 7.32294 65.5902 8.21626C66.6078 8.71169 67.6303 9.05694 70.0147 9.71012C70.9525 9.96705 71.6972 10.2044 72.1303 10.3845C73.5559 10.9771 74.1779 11.7463 74.2745 13.0359C74.3522 14.0738 74.0876 14.8352 73.4302 15.4654C72.6731 16.1911 71.4541 16.5803 69.635 16.6769C67.5036 16.7902 65.8949 16.3338 64.8819 15.3284C64.7242 15.1719 64.5234 14.9394 64.4356 14.8118C64.0117 14.1953 63.7568 13.393 63.7119 12.534L63.6931 12.1755L63.0382 12.1674L62.3833 12.1594V12.3809C62.3833 13.2003 62.623 14.2487 62.9724 14.9565C63.8096 16.653 65.5019 17.6855 67.8728 17.9465C68.4462 18.0096 69.6723 18.0085 70.3329 17.9443C71.8233 17.7995 72.9346 17.4606 73.8259 16.8792C74.1874 16.6433 74.724 16.1186 74.9388 15.7908C75.2529 15.3116 75.442 14.8212 75.5458 14.2171C75.6009 13.896 75.6072 13.7661 75.5944 13.2063C75.5832 12.7117 75.5653 12.495 75.5165 12.2647C75.2932 11.2094 74.7991 10.4947 73.8724 9.88632C73.0254 9.33027 71.741 8.84862 69.2639 8.15809C67.5636 7.68412 67.0648 7.52472 66.3912 7.24003C65.3246 6.78928 64.6376 6.20428 64.3546 5.50586C64.2244 5.18457 64.1799 4.87069 64.1987 4.40739C64.2743 2.54411 65.5584 1.53641 68.1046 1.3422C68.6161 1.30321 69.7644 1.3208 70.1672 1.37381C72.1097 1.62954 73.2259 2.46215 73.6327 3.95876C73.7206 4.28196 73.7958 4.81993 73.7958 5.12556V5.34813H74.4629H75.13L75.1101 4.95892C75.0497 3.77524 74.7872 2.89593 74.2541 2.09132C74.0508 1.7845 73.5386 1.27028 73.2236 1.05685C72.4557 0.536423 71.5404 0.224846 70.3329 0.0728222C69.9758 0.0278544 68.517 -0.00979305 68.1949 0.0176059ZM30.9764 5.82619V11.4135H31.6341H32.2919L32.3112 10.943C32.3736 9.42666 32.7842 8.21898 33.5297 7.35954C33.9942 6.82397 34.715 6.41358 35.4631 6.25875C35.9876 6.15017 36.7494 6.15097 37.2876 6.26069C38.7399 6.5567 39.7649 7.62813 40.2061 9.31115C40.5312 10.5513 40.5358 12.2269 40.2176 13.5051C39.8466 14.9953 39.0044 16.033 37.8169 16.463C37.358 16.6292 37.0156 16.6827 36.3965 16.6851C36.0485 16.6864 35.7547 16.6719 35.6136 16.6466C35.0698 16.5488 34.446 16.2864 34.0462 15.9874C33.7811 15.789 33.4279 15.4174 33.2355 15.1345C33.0227 14.8217 32.7507 14.2568 32.6455 13.9095L32.5593 13.6246H31.8883C31.359 13.6246 31.2172 13.6328 31.2172 13.6633C31.2172 13.7391 31.3689 14.2793 31.4759 14.5844C32.075 16.2938 33.2781 17.4323 34.8986 17.8233C35.8132 18.044 36.9693 18.0438 37.8588 17.8228C39.5338 17.4067 40.7195 16.254 41.3167 14.4612C41.6518 13.4556 41.778 12.4844 41.7472 11.1493C41.729 10.3542 41.6888 9.96254 41.5592 9.31422C41.1323 7.17914 39.9723 5.72911 38.2334 5.15684C37.0996 4.78371 35.6633 4.78255 34.5401 5.15382C33.7266 5.42273 33.0308 5.91215 32.5074 6.58356L32.3013 6.84793V3.54338V0.238829H31.6388H30.9764V5.82619ZM53.4489 1.38726C54.3576 1.53268 55.1063 1.7738 55.8731 2.16808C56.6076 2.54566 57.1792 2.96319 57.7926 3.57012C58.9854 4.75046 59.7338 6.22773 59.9951 7.91771C60.0618 8.34946 60.0701 9.54964 60.0092 9.97936C59.8182 11.329 59.2981 12.5881 58.4975 13.6395C57.4973 14.9531 56.0673 15.9344 54.4944 16.3867C51.2319 17.325 47.7845 16.0812 45.8861 13.281C44.7795 11.6488 44.3473 9.65096 44.6801 7.7065C44.8999 6.42269 45.4598 5.19491 46.2939 4.16791C46.6017 3.78883 47.2573 3.15731 47.6382 2.8729C48.7537 2.03993 50.0137 1.53456 51.4152 1.35785C51.8416 1.30413 53.0374 1.3214 53.4489 1.38726ZM23.102 4.89119C22.8206 4.91052 22.2068 5.02379 21.9108 5.11107C20.2048 5.61396 19.0334 6.93598 18.5237 8.9336C18.3462 9.62924 18.2701 10.2397 18.248 11.1446C18.2076 12.8024 18.4531 14.1337 19.0056 15.253C19.728 16.7164 20.8935 17.6028 22.4847 17.8992C22.9731 17.9901 23.9212 18.0118 24.4413 17.9439C25.3208 17.8291 26.0487 17.5586 26.7095 17.1008C27.0326 16.8769 27.5372 16.3704 27.7914 16.0147C28.161 15.4976 28.5346 14.6657 28.7188 13.9501C28.8114 13.5903 28.8758 13.6245 28.1082 13.6249L27.4382 13.6252L27.3363 13.9376C26.9829 15.0202 26.3255 15.8372 25.4488 16.2832C24.6655 16.6817 23.5628 16.797 22.6243 16.5785C21.0192 16.2048 20.0046 14.9588 19.656 12.9331C19.5907 12.5535 19.5129 11.5404 19.5432 11.4622C19.5604 11.4175 19.9484 11.4135 24.2841 11.4135H29.0061L28.997 11.1073C28.9557 9.72428 28.715 8.60977 28.2518 7.65738C27.9338 7.00336 27.6638 6.62975 27.1735 6.16516C26.1766 5.22054 24.76 4.77729 23.102 4.89119ZM0.0022095 5.16081C0.027052 5.24495 3.65065 16.6615 3.83388 17.233L3.99932 17.7489L4.74158 17.7409L5.48384 17.7329L7.1488 12.4892C8.06454 9.60513 8.82147 7.22527 8.8309 7.20062C8.8461 7.16079 8.85065 7.16079 8.87173 7.20062C8.88477 7.22527 9.6454 9.60847 10.562 12.4967L12.2286 17.7479H12.9694H13.7101L14.362 15.6937C14.7206 14.5639 15.6114 11.7572 16.3414 9.45648C17.0715 7.1558 17.6812 5.23644 17.6964 5.19126L17.7239 5.10909H17.0389H16.3539L14.8377 9.88225C14.0039 12.5075 13.2464 14.8941 13.1545 15.1858C13.0626 15.4774 12.9797 15.7161 12.9703 15.7161C12.9608 15.7161 12.1952 13.3295 11.2689 10.4126L9.58463 5.10909H8.85405H8.1235L7.95813 5.62451C7.86719 5.908 7.11451 8.27775 6.28549 10.8907C4.5934 16.2239 4.75281 15.7301 4.73032 15.7078C4.72102 15.6986 3.95834 13.3134 3.03549 10.4075L1.35762 5.12403L0.672113 5.116C0.0284973 5.10847 -0.0124551 5.11119 0.0022095 5.16081ZM24.5173 6.26893C25.2805 6.43357 25.7803 6.7011 26.3101 7.22841C26.7885 7.70471 27.09 8.20488 27.3313 8.92281C27.4363 9.23534 27.6038 9.94661 27.6038 10.0802C27.6038 10.1248 27.2762 10.1288 23.6139 10.1288C21.4195 10.1288 19.6241 10.1227 19.6241 10.1153C19.6241 10.108 19.652 9.95668 19.6861 9.7792C19.9388 8.46378 20.4932 7.47921 21.3221 6.87392C21.7247 6.57985 22.3603 6.31874 22.8461 6.24778C22.9703 6.22964 23.1058 6.209 23.1472 6.20189C23.344 6.16812 24.2572 6.21282 24.5173 6.26893Z" fill="url(#paint0_linear_511_2838)"/>
<defs>
<linearGradient id="paint0_linear_511_2838" x1="1.53699" y1="0.518994" x2="6.32344" y2="24.3279" gradientUnits="userSpaceOnUse">
<stop stop-color="#F1FFFC"/>
<stop offset="0.515625" stop-color="#F1F1FF"/>
<stop offset="1" stop-color="#E6F6FF"/>
</linearGradient>
</defs>
</svg>
