<svg width="67" height="20" viewBox="0 0 67 20" fill="none" xmlns="http://www.w3.org/2000/svg">
<path fill-rule="evenodd" clip-rule="evenodd" d="M9.52344 0.0442233C8.26533 0.175674 6.85382 0.626124 5.67152 1.27337L5.08233 1.59591L5.66731 1.56327C6.68116 1.50672 7.99942 1.93266 9.68031 2.85988L10.5516 3.34041L11.8768 2.67278C13.6359 1.78632 14.2214 1.59583 15.2087 1.58854L15.9683 1.5829L15.7351 1.43919C15.2924 1.16644 14.1464 0.651843 13.5474 0.456924C12.3856 0.078816 10.7741 -0.086475 9.52344 0.0442233ZM3.52259 2.88011C2.33194 4.08279 1.51828 5.41195 1.00225 6.99733C0.67182 8.01254 0.548792 8.84583 0.552702 10.0429C0.558117 11.7183 0.854331 12.9382 1.62995 14.4798C1.94541 15.1069 2.70313 16.2846 2.79104 16.2846C2.80849 16.2846 2.78623 16.1797 2.74149 16.0514C2.58522 15.6032 2.7078 14.5987 3.03973 13.6074C3.42807 12.4473 3.71834 11.8399 4.52862 10.4915C5.47216 8.92156 6.58453 7.38296 7.92227 5.79736L8.17329 5.49979L7.51356 4.83344C6.13363 3.43975 4.8089 2.5229 4.17518 2.5229C3.9183 2.5229 3.82648 2.57321 3.52259 2.88011ZM16.1954 2.76821C15.9564 2.90214 15.5334 3.18061 15.2554 3.38711C14.722 3.78311 13.0579 5.35608 13.0579 5.46414C13.0579 5.49904 13.3627 5.90354 13.7353 6.36309C16.3219 9.55287 18.0208 12.5354 18.3966 14.5464C18.4942 15.0687 18.4934 15.768 18.395 16.0269C18.3525 16.1388 18.3299 16.2425 18.3448 16.2574C18.414 16.3265 19.2006 15.1165 19.5248 14.4422C20.8801 11.6236 20.9159 8.59316 19.6272 5.76555C19.2653 4.97128 18.516 3.87569 17.8339 3.14331C17.2881 2.55735 17.2387 2.52298 16.9429 2.52381C16.7308 2.52441 16.4899 2.60322 16.1954 2.76821ZM50.2098 3.95953C47.1796 4.42277 45.2848 6.98913 45.4129 10.4566C45.4571 11.6517 45.6441 12.4342 46.1224 13.4246C46.4153 14.0311 46.568 14.2385 47.1537 14.8241C47.7194 15.3898 47.9541 15.5658 48.4788 15.818C49.4553 16.2871 49.9297 16.3903 51.1093 16.3903C52.2918 16.3903 52.7779 16.2845 53.7212 15.8217C54.8371 15.2743 55.8314 14.1645 56.3099 12.9323C56.681 11.9764 56.7761 11.4001 56.7739 10.1181C56.7722 9.11159 56.7458 8.85433 56.5804 8.23287C55.8859 5.62334 53.9887 4.04887 51.3829 3.91945C51.0049 3.90065 50.4771 3.9187 50.2098 3.95953ZM24.6162 4.27816C24.6493 4.33366 25.4546 5.43482 26.4059 6.72511C27.3572 8.01547 28.2662 9.25402 28.4258 9.47744L28.7161 9.88367L28.5425 10.1325C28.3918 10.3483 27.0046 12.2411 24.8144 15.2194C24.4696 15.6883 24.1874 16.0944 24.1874 16.1218C24.1872 16.1493 24.5412 16.1549 24.974 16.1342L25.7607 16.0966L26.8651 14.5926C27.4725 13.7654 28.3091 12.6225 28.7241 12.0528C29.1392 11.4832 29.5039 11.0263 29.5345 11.0376C29.5904 11.0582 32.7662 15.3243 33.1185 15.8522L33.3068 16.1342H34.0864C34.5152 16.1342 34.866 16.1179 34.866 16.098C34.866 16.0781 34.3868 15.4097 33.8011 14.6128C32.5648 12.9305 31.3063 11.2149 30.7397 10.4397C30.4881 10.0955 30.3642 9.86134 30.4014 9.8005C30.4337 9.74771 30.9332 9.06158 31.5111 8.27574C32.0892 7.48989 32.973 6.28857 33.475 5.60612C33.977 4.92368 34.4128 4.32305 34.4433 4.27131C34.4863 4.1986 34.3223 4.17731 33.7184 4.17731H32.938L32.68 4.54061C31.8085 5.76773 29.5735 8.76454 29.5298 8.76454C29.5011 8.76454 28.7203 7.73241 27.7947 6.47093L26.1118 4.17731H25.334C24.7036 4.17731 24.5674 4.19642 24.6162 4.27816ZM35.618 6.77173V9.36614H34.7926H33.9672L33.5518 9.91804C33.3233 10.2215 33.1364 10.4923 33.1364 10.5196C33.1364 10.547 33.6947 10.5694 34.3772 10.5694H35.618V13.3518V16.1342H38.4851C41.1177 16.1342 41.4062 16.1215 42.013 15.979C43.335 15.6687 44.2691 14.857 44.5978 13.7329C44.7681 13.1507 44.7554 12.1031 44.5719 11.5808C44.3692 11.0042 43.9595 10.4778 43.4468 10.1354L43.0109 9.84427L43.4327 9.46548C44.1858 8.78921 44.4834 7.96245 44.3394 6.94695C44.1948 5.92745 43.564 5.03415 42.6855 4.60505C41.9229 4.23259 41.3638 4.17731 38.3562 4.17731H35.618V6.77173ZM56.0743 4.23108C56.0754 4.26357 56.5524 4.93308 57.1343 5.71892C57.7164 6.50477 58.6454 7.7646 59.199 8.51856L60.2054 9.88939L58.0167 12.8802C56.8129 14.5251 55.7751 15.9314 55.7106 16.0053C55.5986 16.1333 55.6312 16.1385 56.4108 16.1181L57.2283 16.0966L59.0852 13.5805C60.1064 12.1966 60.9715 11.0568 61.0077 11.0476C61.0438 11.0385 61.6222 11.7816 62.293 12.6989C62.9639 13.6164 63.8038 14.7646 64.1595 15.2506L64.8062 16.1342H65.5998C66.2232 16.1342 66.3778 16.114 66.3209 16.0402C66.281 15.9885 65.7288 15.2355 65.0938 14.367C64.4587 13.4984 63.5208 12.2204 63.0096 11.5269C62.4983 10.8334 62.0259 10.1716 61.9597 10.0563L61.8394 9.8466L63.0943 8.13699C64.6932 5.95896 65.8483 4.39156 65.9432 4.27131C66.0015 4.19739 65.8486 4.17731 65.2263 4.17731H64.4352L63.1762 5.88812C62.4837 6.82903 61.7273 7.85995 61.4952 8.17903C61.2632 8.4981 61.0411 8.74965 61.0017 8.738C60.9622 8.72626 60.181 7.70384 59.2656 6.46581L57.6012 4.21491L56.8369 4.19348C56.4165 4.18168 56.0733 4.1986 56.0743 4.23108ZM52.0191 5.26276C53.1187 5.4958 54.236 6.30895 54.7418 7.24444C55.9166 9.41675 55.6145 12.3693 54.0562 13.9465C52.4554 15.5666 49.7748 15.5731 48.1722 13.9606C47.5967 13.3815 47.3491 12.966 47.0254 12.0358C46.8025 11.3956 46.7897 11.2979 46.7877 10.2309C46.7853 8.92028 46.8781 8.476 47.3611 7.48613C48.2083 5.75021 50.0874 4.85321 52.0191 5.26276ZM41.7049 5.59898C42.6065 5.87963 43.0186 6.42678 43.0186 7.34348C43.0186 7.96614 42.7817 8.46787 42.3222 8.81831C41.7316 9.26876 41.4538 9.31441 39.096 9.34802L36.9716 9.3784V7.41702V5.45572H39.1081C40.9977 5.45572 41.2978 5.47227 41.7049 5.59898ZM9.93448 8.20746C8.88529 9.07565 7.5201 10.3999 6.42683 11.61C4.30708 13.956 3.40265 15.3095 3.24367 16.3735C3.19216 16.718 3.19886 16.734 3.55598 17.1158C4.70219 18.3412 6.78193 19.4441 8.73383 19.8618C9.65286 20.0584 11.5129 20.0429 12.5114 19.8302C14.372 19.4338 16.029 18.5761 17.4096 17.2947L17.9638 16.7804L17.9223 16.3794C17.8038 15.2298 16.2414 13.0892 13.5467 10.3842C12.5522 9.38592 10.6842 7.71173 10.5649 7.71173C10.5477 7.71173 10.2639 7.93478 9.93448 8.20746ZM42.0451 10.7772C42.9569 11.1191 43.3846 11.6946 43.3863 12.5823C43.3878 13.3528 43.259 13.7042 42.8107 14.1519C42.5034 14.4587 42.3151 14.5738 41.8972 14.7105C41.4086 14.8703 41.2128 14.8849 39.1712 14.9136L36.9716 14.9445V12.752V10.5596L39.284 10.5842C41.4611 10.6076 41.6227 10.6188 42.0451 10.7772Z" fill="url(#paint0_linear_511_2851)"/>
<defs>
<linearGradient id="paint0_linear_511_2851" x1="1.88994" y1="0.576661" x2="8.51897" y2="26.3984" gradientUnits="userSpaceOnUse">
<stop stop-color="#F1FFFC"/>
<stop offset="0.515625" stop-color="#F1F1FF"/>
<stop offset="1" stop-color="#E6F6FF"/>
</linearGradient>
</defs>
</svg>
