<svg width="82" height="20" viewBox="0 0 82 20" fill="none" xmlns="http://www.w3.org/2000/svg">
<path fill-rule="evenodd" clip-rule="evenodd" d="M9.6128 0.051821C7.70306 0.2786 5.83609 0.968794 4.42472 1.96979C3.55255 2.58836 2.28119 3.97636 1.70347 4.94079C1.43269 5.39262 1.08033 6.14276 0.920408 6.60769C-0.980088 12.1329 1.86268 17.7758 7.4142 19.4979C9.0994 20.0207 7.70855 19.9999 40.9575 19.9999C74.2693 19.9999 72.7965 20.0222 74.5375 19.4895C80.2447 17.7432 83.1008 11.6064 80.7899 6.05527C79.456 2.8512 76.3162 0.576401 72.5563 0.0900243C71.8514 -0.00111417 10.3732 -0.0385046 9.6128 0.051821ZM71.8847 2.52658C75.3302 2.86167 77.7593 4.6944 78.7282 7.69008C79.0765 8.76708 79.1564 10.506 78.9093 11.63C78.2595 14.5859 76.2103 16.5957 73.104 17.3238C72.3331 17.5046 71.0947 17.5118 40.9067 17.5118C11.2726 17.5118 9.47218 17.5017 8.81491 17.333C7.08419 16.8887 5.88324 16.2139 4.80725 15.0811C3.60782 13.8184 2.99515 12.3213 2.88624 10.387C2.72662 7.5523 4.03507 5.04391 6.40436 3.64219C7.31514 3.10349 8.74805 2.6421 9.83613 2.53725C11.1093 2.41461 70.6279 2.40435 71.8847 2.52658ZM8.38929 5.39556C8.36247 5.46547 8.35251 7.58004 8.36704 10.0947L8.39356 14.6669L9.83999 14.695L11.2864 14.7233L11.3132 11.4538L11.3401 8.18428L13.3705 11.4509L15.4011 14.7177H16.8504H18.2999V9.99313V5.26856H16.8281H15.3563L15.3294 8.48015L15.3026 11.6916L13.3213 8.48116L11.3401 5.27059L9.88906 5.26957C8.82111 5.26886 8.42516 5.30209 8.38929 5.39556ZM19.9256 6.23379V7.19903H21.348H22.7705V6.23379V5.26856H21.348H19.9256V6.23379ZM61.6847 6.98657V8.70469L61.2528 8.48929C60.9517 8.33912 60.5703 8.262 59.9925 8.23447C59.2631 8.19972 59.0913 8.22756 58.5581 8.46684C57.8334 8.79207 57.2283 9.38432 56.843 10.1455C56.6026 10.6206 56.5606 10.8261 56.5631 11.5172C56.5676 12.7706 57.0434 13.666 58.0518 14.3188C59.017 14.9436 60.3477 15.0465 61.2732 14.5679C61.6453 14.3755 61.6847 14.3752 61.6847 14.5653C61.6847 14.6935 61.9104 14.7177 63.1071 14.7177H64.5296V9.99313V5.26856H63.1071H61.6847V6.98657ZM73.4 5.5689C72.5457 6.08982 72.4374 7.16143 73.1681 7.86159C73.4124 8.09568 73.5837 8.15949 74.0597 8.19393C74.5856 8.23193 74.6841 8.20683 74.9779 7.95963C75.4419 7.56927 75.6376 7.14589 75.5739 6.67059C75.4719 5.91039 74.8731 5.37087 74.1311 5.37087C73.9071 5.37087 73.579 5.45978 73.4 5.5689ZM74.9016 5.95763C75.3636 6.37045 75.4271 7.03189 75.048 7.4824C74.4074 8.24372 73.1803 7.97142 73.0034 7.02864C72.8012 5.95073 74.0838 5.227 74.9016 5.95763ZM73.5723 6.80003C73.5723 7.5265 73.5926 7.61641 73.7501 7.58634C73.8644 7.5645 73.9481 7.4257 73.9846 7.19791L74.0413 6.84341L74.232 7.22443C74.3694 7.49886 74.488 7.60544 74.6563 7.60544C74.8867 7.60544 74.8876 7.60087 74.724 7.25765C74.5703 6.93547 74.5704 6.89757 74.7257 6.74242C75.1137 6.35429 74.7933 5.97978 74.0731 5.97978H73.5723V6.80003ZM74.3305 6.31995C74.5488 6.47967 74.4608 6.69101 74.1759 6.69101C74.0333 6.69101 73.9787 6.6207 73.9787 6.437C73.9787 6.14956 74.0603 6.12244 74.3305 6.31995ZM34.1501 6.89422V7.50384H33.3881H32.626V7.96105V8.41827H33.3881H34.1501V11.568V14.7177H35.5725H36.995V11.568V8.41827H37.757H38.519V7.96105V7.50384H37.757H36.995V6.89422V6.28459H35.5725H34.1501V6.89422ZM41.2623 8.15024C39.113 8.61721 37.7344 10.5197 38.2529 12.3033C38.7382 13.9726 40.2928 15.0225 42.2797 15.0225C43.6235 15.0225 44.5152 14.7023 45.3648 13.9145C45.742 13.5647 46.3425 12.7353 46.3425 12.5641C46.3425 12.5192 45.7081 12.4824 44.9327 12.4824H43.5228L43.4759 13.0482C43.4147 13.7854 43.0187 14.2296 42.4083 14.2456C41.5467 14.2682 41.1607 13.6923 41.1607 12.3841V11.568H43.8468H46.5329L46.4772 11.187C46.1658 9.05919 43.6969 7.62139 41.2623 8.15024ZM68.3905 8.15004C65.319 8.98624 64.4441 12.3265 66.8256 14.1245C67.5522 14.6731 68.2789 14.9328 69.2657 14.9963C70.6377 15.0847 71.7313 14.7109 72.6701 13.8327C74.0834 12.5109 74.0838 10.5239 72.6711 9.20245C71.804 8.39135 70.8004 8.01003 69.5589 8.01988C69.1678 8.02303 68.642 8.08156 68.3905 8.15004ZM28.6395 8.25062C28.3748 8.3252 27.9291 8.52861 27.6489 8.70286L27.1394 9.01946V8.71892V8.41827H25.717H24.2945V11.568V14.7177H25.717H27.1394V12.4961C27.1394 10.3971 27.1511 10.2596 27.3516 10.0048C27.8179 9.41206 28.591 9.2688 29.1804 9.66596C29.7501 10.0499 29.778 10.1847 29.7796 12.5615L29.7811 14.7234L31.1782 14.6951L32.5752 14.6669V12.6856C32.5752 10.296 32.4984 9.94944 31.7995 9.18467C31.0006 8.31057 29.7449 7.93931 28.6395 8.25062ZM51.6259 8.2744C51.3186 8.35558 50.8727 8.55747 50.6353 8.72288L50.2035 9.02373V8.72095V8.41827H48.781H47.3586V11.568V14.7177H48.781H50.2035V12.4809V10.2442L50.54 9.87699C50.9752 9.402 51.6831 9.29948 52.2162 9.63406C52.7814 9.98876 52.8451 10.2927 52.8451 12.6316V14.7177H54.2238H55.6024L55.57 12.457C55.5377 10.2015 55.537 10.1952 55.2589 9.72225C54.8579 9.03998 54.2363 8.54975 53.4737 8.31423C52.7153 8.07993 52.3887 8.07292 51.6259 8.2744ZM19.9256 11.568V14.7177H21.348H22.7705V11.568V8.41827H21.348H19.9256V11.568ZM42.8913 8.97882C43.2795 9.17949 43.4976 9.61577 43.4976 10.1913V10.6536H42.3292H41.1607V10.2371C41.1607 9.14972 42.0174 8.52689 42.8913 8.97882ZM70.2075 8.9904C70.6435 9.29572 70.7274 9.70356 70.7274 11.5172C70.7274 12.7267 70.6876 13.2956 70.5858 13.5392C70.199 14.4649 68.9317 14.4405 68.5555 13.5003C68.301 12.8641 68.3224 10.0512 68.5863 9.47017C68.6916 9.23841 68.8619 8.99975 68.9651 8.9398C69.2481 8.77531 69.9407 8.80345 70.2075 8.9904ZM61.3119 9.43888C61.6748 9.72449 61.7851 10.2088 61.7851 11.5172C61.7851 12.8255 61.6748 13.3099 61.3119 13.5955C60.9321 13.8942 60.2572 13.8765 59.8869 13.5583L59.6018 13.3133L59.5691 11.7173C59.5343 10.0246 59.6017 9.65428 59.994 9.37944C60.3072 9.16008 60.9969 9.19127 61.3119 9.43888Z" fill="url(#paint0_linear_511_2853)"/>
<defs>
<linearGradient id="paint0_linear_511_2853" x1="1.98387" y1="0.576661" x2="7.4668" y2="26.9608" gradientUnits="userSpaceOnUse">
<stop stop-color="#F1FFFC"/>
<stop offset="0.515625" stop-color="#F1F1FF"/>
<stop offset="1" stop-color="#E6F6FF"/>
</linearGradient>
</defs>
</svg>
